#!OML:ASF I:\golf\golf\golf 2\Subject 1\2002-09-07\Subject1.ASF
:FULLY-SPECIFIED
:DEGREES
254
root 1.91614 12.1197 -4.14903 18.2152 -5.42514 -3.67482
lowerback 38.7507 8.4006 2.13931
upperback 15.7114 11.0026 6.01384
thorax -2.09376 5.03844 1.43044
lowerneck -11.8843 -6.17536 -1.88951
upperneck 22.1779 -5.82411 -9.40514
head 8.6574 -3.74334 -3.47719
rclavicle 4.77083e-014 3.26007e-014
rhumerus 34.2131 -5.75227 -76.904
rradius 26.4567
rwrist -15.5119
rhand -39.5385 26.6334
rfingers 7.12502
rthumb -12.5229 -2.97135
lclavicle 4.77083e-014 3.26007e-014
lhumerus -23.7392 -42.3791 92.8335
lradius 100.311
lwrist -7.58716
lhand -35.7524 11.6154
lfingers 7.12502
lthumb -8.87088 41.409
rfemur -87.5263 -41.9826 41.825
rtibia 120.628
rfoot -27.6364 4.61351
rtoes -9.36835
lfemur -91.5299 11.6369 -25.5654
ltibia 106.711
lfoot -27.5227 -5.26214
ltoes -5.46096
255
root 1.92502 12.0326 -4.13679 18.066 -5.5211 -3.60487
lowerback 38.9534 8.43548 2.174
upperback 15.7318 11.0526 5.99419
thorax -2.1246 5.06142 1.36206
lowerneck -11.3173 -6.21682 -1.57575
upperneck 21.7207 -5.94178 -9.69608
head 8.36726 -3.78376 -3.5908
rclavicle 1.20861e-013 -3.26007e-014
rhumerus 34.1438 -5.80746 -76.8182
rradius 26.6289
rwrist -15.437
rhand -39.5726 26.7357
rfingers 7.12502
rthumb -12.5557 -2.86706
lclavicle 1.20861e-013 -3.26007e-014
lhumerus -24.0589 -42.521 92.8912
lradius 100.612
lwrist -7.78074
lhand -36.6578 11.4422
lfingers 7.12502
lthumb -9.74449 41.1967
rfemur -88.0584 -42.5072 41.7885
rtibia 121.547
rfoot -27.6689 4.98424
rtoes -9.34829
lfemur -91.9231 11.7209 -25.7068
ltibia 107.594
lfoot -27.6807 -5.40491
ltoes -5.22703
256
root 1.93515 11.9391 -4.12806 17.9867 -5.51767 -3.66986
lowerback 39.1037 8.42642 2.37127
upperback 15.7467 11.1075 6.00952
thorax -2.12577 5.09305 1.25398
lowerneck -11.0725 -6.32209 -1.64124
upperneck 21.7513 -6.12908 -9.46005
head 8.33403 -3.84748 -3.50918
rclavicle 9.54166e-014 5.56597e-015
rhumerus 34.1094 -5.78459 -76.6167
rradius 26.7182
rwrist -15.5234
rhand -39.7103 26.8618
rfingers 7.12502
rthumb -12.6885 -2.73273
lclavicle 9.54166e-014 5.56597e-015
lhumerus -24.3227 -42.5905 92.9022
lradius 101.089
lwrist -7.58636
lhand -37.0327 10.9156
lfingers 7.12502
lthumb -10.1062 40.6529
rfemur -88.7485 -42.9494 42.0057
rtibia 122.475
rfoot -27.674 5.10135
rtoes -10.1368
lfemur -92.5276 11.7821 -25.7444
ltibia 108.532
lfoot -27.7384 -5.43987
ltoes -5.81042
257
root 1.94697 11.8453 -4.11918 17.9191 -5.48987 -3.74876
lowerback 39.2843 8.42519 2.57216
upperback 15.7512 11.1757 6.03652
thorax -2.1492 5.12974 1.14801
lowerneck -11.1693 -6.41518 -1.51684
upperneck 21.9543 -6.27563 -9.4028
head 8.40944 -3.90397 -3.53681
rclavicle -6.36111e-014 -7.15625e-015
rhumerus 34.007 -5.48348 -76.1013
rradius 26.8306
rwrist -15.9261
rhand -39.9595 26.8666
rfingers 7.12502
rthumb -12.9288 -2.71293
lclavicle -6.36111e-014 -7.15625e-015
lhumerus -24.5312 -42.7233 92.9029
lradius 101.58
lwrist -7.45422
lhand -37.4836 10.9231
lfingers 7.12502
lthumb -10.5411 40.6387
rfemur -89.4474 -43.4138 42.2528
rtibia 123.357
rfoot -27.6043 5.20722
rtoes -10.2051
lfemur -93.165 11.8437 -25.8106
ltibia 109.455
lfoot -27.7118 -5.49139
ltoes -6.49259
258
root 1.95554 11.7612 -4.10846 17.7769 -5.52962 -3.79288
lowerback 39.5277 8.49908 2.65023
upperback 15.7662 11.2935 6.07914
thorax -2.20421 5.18232 1.09476
lowerneck -11.2465 -6.48304 -1.26693
upperneck 22.0943 -6.39259 -9.47219
head 8.45067 -3.94787 -3.62051
rclavicle -6.67916e-014 -3.02153e-014
rhumerus 33.8008 -5.29408 -75.6374
rradius 27.0151
rwrist -16.1222
rhand -40.0617 27.2171
rfingers 7.12502
rthumb -13.0273 -2.35609
lclavicle -6.67916e-014 -3.02153e-014
lhumerus -24.6914 -42.8789 92.8756
lradius 101.934
lwrist -7.6845
lhand -37.7601 11.1125
lfingers 7.12502
lthumb -10.8079 40.8144
rfemur -89.9893 -43.8834 42.3891
rtibia 124.13
rfoot -27.443 5.37858
rtoes -9.72266
lfemur -93.6394 11.9935 -25.8942
ltibia 110.319
lfoot -27.7688 -5.69487
ltoes -6.20875
259
root 1.94714 11.7123 -4.08717 17.0137 -5.79185 -3.83258
lowerback 40.4799 8.75728 2.45543
upperback 15.8388 11.5425 6.19583
thorax -2.46967 5.26549 1.1469
lowerneck -11.1575 -6.52132 -1.17514
upperneck 22.1671 -6.4732 -9.41697
head 8.45222 -3.97102 -3.62327
rclavicle 6.36111e-015 4.13472e-014
rhumerus 33.6529 -5.6013 -75.7918
rradius 27.2216
rwrist -15.4862
rhand -40.0611 27.812
rfingers 7.12502
rthumb -13.0267 -1.76126
lclavicle 6.36111e-015 4.13472e-014
lhumerus -25.0035 -42.9729 92.9011
lradius 102.089
lwrist -8.3118
lhand -37.8259 10.5803
lfingers 7.12502
lthumb -10.8713 40.2789
rfemur -89.1114 -44.5764 41.7974
rtibia 124.66
rfoot -27.6053 5.5584
rtoes -9.78589
lfemur -93.0453 12.6642 -25.7989
ltibia 111.051
lfoot -28.2089 -6.16197
ltoes -5.4471
260
root 1.92691 11.6919 -4.05285 15.6954 -6.15236 -3.95397
lowerback 42.1035 9.10041 2.20987
upperback 15.945 11.8713 6.37979
thorax -2.90334 5.36375 1.21096
lowerneck -10.9531 -6.57693 -1.00736
upperneck 22.1081 -6.58234 -9.47222
head 8.37843 -4.00886 -3.66614
rclavicle -3.49861e-014 7.95139e-015
rhumerus 33.5231 -5.69058 -75.8511
rradius 27.4796
rwrist -15.0209
rhand -40.2259 28.0602
rfingers 7.12502
rthumb -13.1856 -1.50282
lclavicle -3.49861e-014 7.95139e-015
lhumerus -25.3531 -43.1695 92.922
lradius 101.732
lwrist -10.1445
lhand -39.4301 9.9731
lfingers 7.12502
lthumb -12.4184 39.5842
rfemur -86.7897 -45.5282 40.5464
rtibia 124.972
rfoot -28.2333 5.56145
rtoes -10.6651
lfemur -91.4735 13.7612 -25.4243
ltibia 111.666
lfoot -28.9803 -6.71381
ltoes -5.03309
261
root 1.92028 11.6434 -4.02462 15.0176 -6.3211 -4.05112
lowerback 42.8816 9.24595 2.15069
upperback 16.0126 12.0225 6.475
thorax -3.07543 5.4094 1.22571
lowerneck -10.7843 -6.6397 -0.869708
upperneck 22.0974 -6.69432 -9.50675
head 8.32962 -4.04954 -3.70116
rclavicle 1.27222e-014 -2.94201e-014
rhumerus 33.1534 -4.80966 -74.9416
rradius 27.9221
rwrist -15.9679
rhand -40.3 28.1925
rfingers 7.12502
rthumb -13.257 -1.36586
lclavicle 1.27222e-014 -2.94201e-014
lhumerus -25.629 -43.2111 92.8363
lradius 99.3974
lwrist -18.0448
lhand -44.9898 10.4309
lfingers 7.12502
lthumb -17.7739 39.6386
rfemur -85.8358 -46.2835 39.9851
rtibia 125.469
rfoot -28.5743 5.56554
rtoes -11.5642
lfemur -90.923 14.3927 -25.2158
ltibia 112.384
lfoot -29.386 -7.11842
ltoes -4.82409
262
root 1.92578 11.5699 -4.00521 14.901 -6.39136 -4.00723
lowerback 42.8774 9.26422 2.0766
upperback 16.0587 12.0118 6.47077
thorax -3.03416 5.40269 1.26518
lowerneck -10.6844 -6.64719 -0.797303
upperneck 22.1843 -6.71483 -9.50873
head 8.33562 -4.05197 -3.71441
rclavicle -1.04958e-013 3.97569e-014
rhumerus 32.628 -3.49613 -73.725
rradius 28.4899
rwrist -17.4957
rhand -40.3217 28.5325
rfingers 7.12502
rthumb -13.2779 -1.02456
lclavicle -1.04958e-013 3.97569e-014
lhumerus -25.9181 -43.1199 92.832
lradius 99.3883
lwrist -19.5583
lhand -45.7447 11.3384
lfingers 7.12502
lthumb -18.5002 40.4787
rfemur -86.2204 -46.9255 39.9873
rtibia 126.186
rfoot -28.6404 5.88971
rtoes -11.6965
lfemur -91.2806 14.5643 -25.2951
ltibia 113.208
lfoot -29.5041 -7.44976
ltoes -4.60743
263
root 1.94528 11.4672 -4.00566 15.2867 -6.27153 -4.01416
lowerback 42.371 9.05102 2.27285
upperback 16.0368 11.8259 6.37127
thorax -2.86068 5.34088 1.17938
lowerneck -10.6891 -6.62878 -0.836852
upperneck 22.3879 -6.70113 -9.34936
head 8.41408 -4.03477 -3.66337
rclavicle -3.18055e-015 0
rhumerus 32.3208 -2.95793 -73.439
rradius 28.9498
rwrist -17.8149
rhand -40.4279 28.7595
rfingers 7.12502
rthumb -13.3803 -0.790872
lclavicle -3.18055e-015 0
lhumerus -26.1395 -42.9709 92.7496
lradius 100.063
lwrist -18.6786
lhand -45.3971 11.1945
lfingers 7.12502
lthumb -18.1658 40.3662
rfemur -87.9372 -47.3169 40.7954
rtibia 127.125
rfoot -28.3466 6.29543
rtoes -10.807
lfemur -92.5856 14.26 -25.469
ltibia 114.102
lfoot -29.2656 -7.62749
ltoes -4.65366
264
root 1.97919 11.3269 -4.03025 16.3724 -5.90655 -4.09562
lowerback 41.1779 8.59645 2.79771
upperback 15.9097 11.4664 6.18282
thorax -2.5304 5.22944 0.953378
lowerneck -10.6815 -6.59715 -0.919407
upperneck 22.5081 -6.67201 -9.16977
head 8.46585 -4.01118 -3.59281
rclavicle -5.08889e-014 1.19271e-014
rhumerus 32.1999 -2.94285 -73.6782
rradius 29.2781
rwrist -17.4576
rhand -40.511 28.9003
rfingers 7.12502
rthumb -13.4604 -0.644803
lclavicle -5.08889e-014 1.19271e-014
lhumerus -26.2826 -42.8246 92.6397
lradius 101.035
lwrist -16.3613
lhand -44.3411 9.98367
lfingers 7.12502
lthumb -17.1496 39.2468
rfemur -91.5192 -47.2346 42.7464
rtibia 128.321
rfoot -27.5179 6.42797
rtoes -10.0952
lfemur -95.1556 13.4027 -25.7743
ltibia 115.058
lfoot -28.4997 -7.52197
ltoes -5.46665
265
root 2.00122 11.2159 -4.04095 16.9837 -5.67936 -4.10036
lowerback 40.4767 8.33414 3.09031
upperback 15.829 11.2494 6.07697
thorax -2.34161 5.15985 0.83208
lowerneck -10.484 -6.55839 -0.805728
upperneck 22.3588 -6.6325 -9.28461
head 8.37063 -3.99039 -3.62967
rclavicle -6.99722e-014 9.54166e-015
rhumerus 32.0484 -2.97064 -73.8399
rradius 29.5415
rwrist -17.1057
rhand -40.5515 29.0732
rfingers 7.12502
rthumb -13.4994 -0.469228
lclavicle -6.99722e-014 9.54166e-015
lhumerus -26.4081 -42.7346 92.6332
lradius 102.095
lwrist -13.4981
lhand -42.6733 8.54943
lfingers 7.12502
lthumb -15.5437 37.9447
rfemur -93.9214 -47.4174 43.9707
rtibia 129.307
rfoot -27.0525 6.54901
rtoes -10.2288
lfemur -96.8126 12.8809 -25.9908
ltibia 115.881
lfoot -28.0652 -7.45615
ltoes -6.65042
266
root 2.00833 11.1485 -4.03133 16.8502 -5.67795 -4.0884
lowerback 40.5758 8.30268 3.14036
upperback 15.8422 11.2301 6.07378
thorax -2.34674 5.15173 0.805819
lowerneck -10.3068 -6.56934 -0.636159
upperneck 22.261 -6.65695 -9.44906
head 8.28885 -3.99989 -3.70087
rclavicle -4.77083e-014 -4.85035e-014
rhumerus 31.8963 -3.21591 -74.1474
rradius 29.774
rwrist -16.546
rhand -40.5116 29.242
rfingers 7.12502
rthumb -13.4609 -0.303
lclavicle -4.77083e-014 -4.85035e-014
lhumerus -26.521 -42.7328 92.658
lradius 103.028
lwrist -11.1479
lhand -41.1031 8.27449
lfingers 7.12502
lthumb -14.031 37.7809
rfemur -94.3567 -47.9914 44.0496
rtibia 129.953
rfoot -27.0592 6.87768
rtoes -10.087
lfemur -97.1564 12.9528 -26.027
ltibia 116.565
lfoot -28.1569 -7.58414
ltoes -7.81101
267
root 2.00798 11.0863 -4.02022 16.6751 -5.75018 -4.18366
lowerback 40.6754 8.35069 3.13451
upperback 15.8778 11.2852 6.11148
thorax -2.34582 5.17385 0.823182
lowerneck -10.1942 -6.61252 -0.551279
upperneck 22.3301 -6.73136 -9.44362
head 8.28329 -4.02513 -3.71693
rclavicle -3.81667e-014 2.22639e-014
rhumerus 31.7369 -3.41348 -74.4576
rradius 30.0308
rwrist -16.1122
rhand -40.5558 29.6214
rfingers 7.12502
rthumb -13.5035 0.0791649
lclavicle -3.81667e-014 2.22639e-014
lhumerus -26.6903 -42.8376 92.6227
lradius 103.644
lwrist -10.1173
lhand -40.3838 8.62746
lfingers 7.12502
lthumb -13.3378 38.1806
rfemur -94.4926 -48.3972 44.0707
rtibia 130.504
rfoot -27.0678 7.15764
rtoes -9.98794
lfemur -97.4492 13.2838 -25.9281
ltibia 117.261
lfoot -28.3316 -7.86448
ltoes -8.75491
